<svg aria-hidden="true" style="position: absolute; width: 0; height: 0; overflow: hidden;" version="1.1" xmlns="http://www.w3.org/2000/svg" xmlns:xlink="http://www.w3.org/1999/xlink">
<defs>

<symbol id="icon-Arrow-1" viewBox="0 0 104 32">
  <path d="M101.414 17.414c0.781-0.781 0.781-2.047 0-2.828l-12.728-12.728c-0.781-0.781-2.048-0.781-2.828 0s-0.781 2.047 0 2.828l11.314 11.314-11.314 11.314c-0.781 0.781-0.781 2.047 0 2.828s2.047 0.781 2.828 0l12.728-12.728zM0 18h100v-4h-100v4z"></path>
</symbol>

<symbol id="icon-Arrow-5" viewBox="0 0 294 32">
  <path d="M0.586 14.586c-0.781 0.781-0.781 2.047 0 2.828l12.728 12.728c0.781 0.781 2.047 0.781 2.828 0s0.781-2.047 0-2.828l-11.314-11.314 11.314-11.314c0.781-0.781 0.781-2.047 0-2.828s-2.047-0.781-2.828 0l-12.728 12.728zM294 14h-292v4h292v-4z"></path>
</symbol>

<symbol id="icon-Arrow-6" viewBox="0 0 294 32">
  <path d="M293.414 14.586c0.782 0.781 0.782 2.047 0 2.828l-12.728 12.728c-0.78 0.781-2.048 0.781-2.828 0-0.782-0.781-0.782-2.047 0-2.828l11.314-11.314-11.314-11.314c-0.782-0.781-0.782-2.047 0-2.828 0.78-0.781 2.048-0.781 2.828 0l12.728 12.728zM0 14h292v4h-292v-4z"></path>
</symbol>
<symbol id="icon-arrow-left" viewBox="0 0 18 32">
<path d="M17.186 1.56l-1.561-1.56-15.626 15.626 15.605 15.605 1.561-1.56-14.045-14.045 14.065-14.065z"></path>
</symbol>
<symbol id="icon-arrow-left-dark" viewBox="0 0 18 32">
<path d="M17.186 1.56l-1.561-1.56-15.626 15.626 15.605 15.605 1.561-1.56-14.045-14.045 14.065-14.065z"></path>
</symbol>
<symbol id="icon-cross-union" viewBox="0 0 31 32">
<path d="M15.603 12.37l-12.37-12.37-3.232 3.232 12.37 12.37-12.37 12.371 3.232 3.232 12.37-12.37 11.873 11.873 3.232-3.233-11.873-11.873 11.873-11.873-3.233-3.232-11.873 11.873z"></path>
</symbol>
<symbol id="icon-inst" viewBox="0 0 32 32">
<path d="M23.169 0h-14.338c-4.869 0-8.831 3.962-8.831 8.831v14.338c0 4.869 3.961 8.831 8.831 8.831h14.338c4.87 0 8.831-3.962 8.831-8.831v-14.338c0-4.869-3.961-8.831-8.831-8.831zM29.161 23.169c0 3.304-2.688 5.992-5.992 5.992h-14.339c-3.304 0-5.991-2.688-5.991-5.992v-14.338c0-3.304 2.688-5.992 5.991-5.992h14.338c3.304 0 5.992 2.688 5.992 5.992v14.338z"></path>
<path d="M16 7.755c-4.547 0-8.246 3.699-8.246 8.246s3.699 8.245 8.246 8.245c4.547 0 8.246-3.699 8.246-8.245s-3.699-8.246-8.246-8.246zM16 21.406c-2.981 0-5.406-2.425-5.406-5.406s2.425-5.406 5.406-5.406c2.981 0 5.406 2.425 5.406 5.406s-2.425 5.406-5.406 5.406z"></path>
<path d="M24.592 5.347c-0.547 0-1.084 0.221-1.471 0.609-0.388 0.386-0.611 0.924-0.611 1.473 0 0.547 0.223 1.085 0.611 1.473 0.386 0.386 0.924 0.609 1.471 0.609 0.549 0 1.085-0.223 1.473-0.609 0.388-0.388 0.609-0.926 0.609-1.473 0-0.549-0.221-1.086-0.609-1.473-0.386-0.388-0.924-0.609-1.473-0.609z"></path>
</symbol>
<symbol id="icon-Separator" viewBox="0 0 640 32">
<path d="M0 0h640v32h-640v-32z"></path>
</symbol>
<symbol id="icon-tg" viewBox="0 0 37 32">
<path d="M8.8 18.541l4.549 11.32 5.922-5.895 10.153 8.034 7.149-32-36.571 15.166 8.8 3.376zM26.121 9.181l-11.194 10.165-1.394 5.231-2.576-6.412 15.164-8.984z"></path>
</symbol>
<symbol id="icon-whats-Ap-logo" viewBox="0 0 32 32">
<path d="M16.004 0h-0.008c-8.822 0-15.996 7.176-15.996 16 0 3.5 1.128 6.744 3.046 9.378l-1.994 5.944 6.15-1.966c2.53 1.676 5.548 2.644 8.802 2.644 8.822 0 15.996-7.178 15.996-16s-7.174-16-15.996-16zM25.314 22.594c-0.386 1.090-1.918 1.994-3.14 2.258-0.836 0.178-1.928 0.32-5.604-1.204-4.702-1.948-7.73-6.726-7.966-7.036-0.226-0.31-1.9-2.53-1.9-4.826s1.166-3.414 1.636-3.894c0.386-0.394 1.024-0.574 1.636-0.574 0.198 0 0.376 0.010 0.536 0.018 0.47 0.020 0.706 0.048 1.016 0.79 0.386 0.93 1.326 3.226 1.438 3.462 0.114 0.236 0.228 0.556 0.068 0.866-0.15 0.32-0.282 0.462-0.518 0.734s-0.46 0.48-0.696 0.772c-0.216 0.254-0.46 0.526-0.188 0.996 0.272 0.46 1.212 1.994 2.596 3.226 1.786 1.59 3.234 2.098 3.752 2.314 0.386 0.16 0.846 0.122 1.128-0.178 0.358-0.386 0.8-1.026 1.25-1.656 0.32-0.452 0.724-0.508 1.148-0.348 0.432 0.15 2.718 1.28 3.188 1.514 0.47 0.236 0.78 0.348 0.894 0.546 0.112 0.198 0.112 1.128-0.274 2.22z"></path>
</symbol>
<symbol id="icon-yes" viewBox="0 0 42 32">
<path d="M15.702 30.573l-0.036 0.036-14.126-14.126 5.222-5.221 9.239 9.239 19.183-19.183 5.222 5.222-24.368 24.368-0.336-0.335z"></path>
</symbol>
<symbol id="icon-phone" viewBox="0 0 30 32">
<path d="M26.745 22.273c-1.952-1.653-3.933-2.655-5.862-1.004l-1.151 0.998c-0.843 0.724-2.409 4.109-8.465-2.79-6.055-6.89-2.452-7.962-1.608-8.681l1.158-0.999c1.918-1.655 1.194-3.738-0.189-5.882l-0.835-1.299c-1.39-2.139-2.903-3.544-4.826-1.892l-1.039 0.899c-0.85 0.613-3.226 2.606-3.802 6.393-0.694 4.543 1.494 9.746 6.507 15.454 5.007 5.711 9.909 8.579 14.552 8.529 3.859-0.041 6.19-2.092 6.919-2.837l1.043-0.901c1.918-1.651 0.726-3.332-1.227-4.989l-1.174-1z"></path>
</symbol>
</defs>
</svg>
