<svg width="16" height="17" viewBox="0 0 16 17" fill="none" xmlns="http://www.w3.org/2000/svg">
<path d="M14.208 11.8323C13.1709 10.9539 12.1184 10.4218 11.094 11.2989L10.4824 11.8289C10.0348 12.2137 9.20274 14.0116 5.98562 10.3468C2.76917 6.68674 4.68323 6.11686 5.13143 5.73539L5.74645 5.20465C6.76545 4.32562 6.38089 3.21903 5.64595 2.07993L5.20244 1.38997C4.46415 0.253524 3.66021 -0.492827 2.63853 0.384882L2.08648 0.862547C1.63494 1.18829 0.372741 2.24711 0.0665717 4.25861C-0.301903 6.67215 0.860468 9.43597 3.52354 12.4685C6.18326 15.5023 8.78737 17.0262 11.2541 16.9997C13.3042 16.9778 14.5423 15.8884 14.9295 15.4924L15.4836 15.014C16.5026 14.137 15.8695 13.244 14.8317 12.3637L14.208 11.8323Z" fill="#FCFCF5"/>
</svg>
